name Walk5.mot
datacolumns 19
datarows 27
range 3.06200000 3.08800000
endheader

                time	   L_ground_force_vx	   L_ground_force_vy	   L_ground_force_vz	   L_ground_force_px	   L_ground_force_py	   L_ground_force_pz	   R_ground_force_vx	   R_ground_force_vy	   R_ground_force_vz	   R_ground_force_px	   R_ground_force_py	   R_ground_force_pz	   L_ground_torque_x	   L_ground_torque_y	   L_ground_torque_z	   R_ground_torque_x	   R_ground_torque_y	   R_ground_torque_z	
          3.06200000	          0.00000000	          0.00000000	          0.00000000	          0.00000000	          0.00000000	          0.00000000	         24.25311224	         92.41259348	          1.96435081	          0.21271842	          0.00000000	          0.06721135	          0.00000000	          0.00000000	          0.00000000	          0.00000000	         -6.17285700	          0.00000000	
          3.06300000	          0.00000000	          0.00000000	          0.00000000	          0.00000000	          0.00000000	          0.00000000	         23.05098081	         86.72828575	          1.99107609	          0.20741951	          0.00000000	          0.06548333	          0.00000000	          0.00000000	          0.00000000	          0.00000000	         -5.91854182	          0.00000000	
          3.06400000	          0.00000000	          0.00000000	          0.00000000	          0.00000000	          0.00000000	          0.00000000	         21.86822941	         81.21664030	          2.00852998	          0.20196057	          0.00000000	          0.06370885	          0.00000000	          0.00000000	          0.00000000	          0.00000000	         -5.66535368	          0.00000000	
          3.06500000	          0.00000000	          0.00000000	          0.00000000	          0.00000000	          0.00000000	          0.00000000	         20.70667847	         75.88007454	          2.01733203	          0.19634913	          0.00000000	          0.06189025	          0.00000000	          0.00000000	          0.00000000	          0.00000000	         -5.41377481	          0.00000000	
          3.06600000	          0.00000000	          0.00000000	         -0.00000000	         -0.00000000	          0.00000000	          0.00000000	         19.56807681	         70.72067207	          2.01809338	          0.19059408	          0.00000000	          0.06003026	          0.00000000	          0.00000000	          0.00000000	          0.00000000	         -5.16428485	          0.00000000	
          3.06700000	          0.00000000	          0.00000000	         -0.00000000	         -0.00000000	          0.00000000	         -0.00000000	         18.45408995	         65.74017749	          2.01141486	          0.18470570	          0.00000000	          0.05813203	          0.00000000	          0.00000000	          0.00000000	          0.00000000	         -4.91735942	          0.00000000	
          3.06800000	          0.00000000	          0.00000000	         -0.00000000	         -0.00000000	          0.00000000	         -0.00000000	         17.36628827	         60.93999190	          1.99788559	          0.17869582	          0.00000000	          0.05619920	          0.00000000	          0.00000000	          0.00000000	          0.00000000	         -4.67346887	          0.00000000	
          3.06900000	          0.00000000	          0.00000000	         -0.00000000	         -0.00000000	          0.00000000	         -0.00000000	         16.30613540	         56.32116794	          1.97808188	          0.17257793	          0.00000000	          0.05423590	          0.00000000	          0.00000000	          0.00000000	          0.00000000	         -4.43307668	          0.00000000	
          3.07000000	          0.00000000	          0.00000000	         -0.00000000	         -0.00000000	          0.00000000	         -0.00000000	         15.27497690	         51.88440241	          1.95256642	          0.16636724	          0.00000000	          0.05224680	          0.00000000	          0.00000000	          0.00000000	          0.00000000	         -4.19663746	          0.00000000	
          3.07100000	          0.00000000	          0.00000000	         -0.00000000	         -0.00000000	          0.00000000	         -0.00000000	         14.27402942	         47.63002385	          1.92188722	          0.16008082	          0.00000000	          0.05023715	          0.00000000	          0.00000000	          0.00000000	          0.00000000	         -3.96459380	          0.00000000	
          3.07200000	          0.00000000	          0.00000000	         -0.00000000	         -0.00000000	          0.00000000	         -0.00000000	         13.30437021	         43.55797263	          1.88657623	          0.15373770	          0.00000000	          0.04821281	          0.00000000	          0.00000000	          0.00000000	          0.00000000	         -3.73737178	          0.00000000	
          3.07300000	          0.00000000	          0.00000000	         -0.00000000	         -0.00000000	          0.00000000	         -0.00000000	         12.36692717	         39.66777324	          1.84714715	          0.14735896	          0.00000000	          0.04618028	          0.00000000	          0.00000000	          0.00000000	          0.00000000	         -3.51537505	          0.00000000	
          3.07400000	          0.00000000	          0.00000000	         -0.00000000	         -0.00000000	          0.00000000	         -0.00000000	         11.46246960	         35.95849879	          1.80409284	          0.14096751	          0.00000000	          0.04414662	          0.00000000	          0.00000000	          0.00000000	          0.00000000	         -3.29897723	          0.00000000	
          3.07500000	          0.00000000	          0.00000000	         -0.00000000	         -0.00000000	          0.00000000	         -0.00000000	         10.59160032	         32.42873130	          1.75788224	          0.13458706	          0.00000000	          0.04211912	          0.00000000	          0.00000000	          0.00000000	          0.00000000	         -3.08851340	          0.00000000	
          3.07600000	          0.00000000	          0.00000000	         -0.00000000	         -0.00000000	          0.00000000	         -0.00000000	          9.75475278	         29.07653872	          1.70895802	          0.12824052	          0.00000000	          0.04010485	          0.00000000	          0.00000000	          0.00000000	          0.00000000	         -2.88427331	          0.00000000	
          3.07700000	          0.00000000	          0.00000000	         -0.00000000	         -0.00000000	          0.00000000	         -0.00000000	          8.95219656	         25.89949003	          1.65773580	          0.12194901	          0.00000000	          0.03811030	          0.00000000	          0.00000000	          0.00000000	          0.00000000	         -2.68649957	          0.00000000	
          3.07800000	          0.00000000	          0.00000000	         -0.00000000	         -0.00000000	          0.00000000	         -0.00000000	          8.18404875	         22.89469911	          1.60460450	          0.11573161	          0.00000000	          0.03614132	          0.00000000	          0.00000000	          0.00000000	          0.00000000	         -2.49538971	          0.00000000	
          3.07900000	          0.00000000	          0.00000000	         -0.00000000	         -0.00000000	          0.00000000	         -0.00000000	          7.45028644	         20.05887429	          1.54992722	          0.10960551	          0.00000000	          0.03420318	          0.00000000	          0.00000000	          0.00000000	          0.00000000	         -2.31109931	          0.00000000	
          3.08000000	          0.00000000	          0.00000000	         -0.00000000	         -0.00000000	          0.00000000	         -0.00000000	          6.75075877	         17.38836528	          1.49404201	          0.10358611	          0.00000000	          0.03230059	          0.00000000	          0.00000000	          0.00000000	          0.00000000	         -2.13374495	          0.00000000	
          3.08100000	          0.00000000	          0.00000000	         -0.00000000	         -0.00000000	          0.00000000	         -0.00000000	          6.08519830	         14.87920749	          1.43726276	          0.09768707	          0.00000000	          0.03043771	          0.00000000	          0.00000000	          0.00000000	          0.00000000	         -1.96340706	          0.00000000	
          3.08200000	          0.00000000	          0.00000000	         -0.00000000	         -0.00000000	          0.00000000	         -0.00000000	          5.45323201	         12.52716368	          1.37988004	          0.09192046	          0.00000000	          0.02861819	          0.00000000	          0.00000000	          0.00000000	          0.00000000	         -1.80013275	          0.00000000	
          3.08300000	          0.00000000	          0.00000000	         -0.00000000	         -0.00000000	          0.00000000	         -0.00000000	          4.85439163	         10.32776319	          1.32216199	          0.08629681	          0.00000000	          0.02684524	          0.00000000	          0.00000000	          0.00000000	          0.00000000	         -1.64393842	          0.00000000	
          3.08400000	          0.00000000	          0.00000000	         -0.00000000	         -0.00000000	          0.00000000	         -0.00000000	          4.28812354	          8.27633868	          1.26435522	          0.08082520	          0.00000000	          0.02512160	          0.00000000	          0.00000000	          0.00000000	          0.00000000	         -1.49481233	          0.00000000	
          3.08500000	          0.00000000	          0.00000000	         -0.00000000	         -0.00000000	          0.00000000	         -0.00000000	          3.75379809	          6.36806047	          1.20668573	          0.07551340	          0.00000000	          0.02344957	          0.00000000	          0.00000000	          0.00000000	          0.00000000	         -1.35271700	          0.00000000	
          3.08600000	          0.00000000	          0.00000000	         -0.00000000	         -0.00000000	          0.00000000	         -0.00000000	          3.25071849	          4.59796860	          1.14935975	          0.07036787	          0.00000000	          0.02183110	          0.00000000	          0.00000000	          0.00000000	          0.00000000	         -1.21759161	          0.00000000	
          3.08700000	          0.00000000	          0.00000000	         -0.00000000	         -0.00000000	          0.00000000	         -0.00000000	          2.77812911	          2.96100266	          1.09256470	          0.06539394	          0.00000000	          0.02026774	          0.00000000	          0.00000000	          0.00000000	          0.00000000	         -1.08935415	          0.00000000	
          3.08800000	          0.00000000	          0.00000000	         -0.00000000	         -0.00000000	          0.00000000	         -0.00000000	          2.33522334	          1.45202944	          1.03647005	          0.06059581	          0.00000000	          0.01876072	          0.00000000	          0.00000000	          0.00000000	          0.00000000	         -0.96790356	          0.00000000	
